<svg width="150" height="150" viewBox="0 0 150 150" fill="none" xmlns="http://www.w3.org/2000/svg">
<path d="M79.3588 42.5633C92.0143 68.4769 95.9695 103.027 92.8053 125.013C138.677 109.308 141.841 45.7049 98.3399 25.2891C96.7531 26.4699 95.3656 27.6508 93.9776 28.832C92.5979 30.0063 91.2178 31.1809 89.6411 32.3561C107.83 38.6364 119.694 55.1253 119.694 73.9718C119.694 87.3205 114.16 99.0999 104.667 106.952C98.3413 74.7585 89.6425 55.9121 79.3588 42.5633Z" fill="#0B396D"/>
<path d="M75.4064 19.7915C45.3504 19.7915 20.8333 44.1342 20.8333 73.9733C20.8333 107.736 51.6775 132.865 84.1052 127.368C84.8962 124.228 85.6873 121.087 85.6873 117.161C58.0045 123.443 31.1142 103.027 31.1142 73.9733C31.1142 51.9853 47.7222 33.1416 69.0765 30.7855C58.0045 46.4918 50.8864 62.9807 47.7222 92.8197C55.6328 70.0464 69.0765 36.2832 89.6426 22.1491C85.6873 20.5769 80.941 19.7915 75.4064 19.7915Z" fill="#0B396D"/>
<ellipse cx="142.188" cy="74.0423" rx="7.8125" ry="13.1048" fill="#FF5C00"/>
<ellipse cx="7.8125" cy="73.9582" rx="7.8125" ry="13.5417" fill="#FF5C00"/>
<path fill-rule="evenodd" clip-rule="evenodd" d="M75 11.9792C40.7699 11.9792 13.0209 39.7282 13.0209 73.9583C13.0209 108.188 40.7699 135.938 75 135.938V140.104C38.4687 140.104 8.85419 110.49 8.85419 73.9583C8.85419 37.427 38.4687 7.8125 75 7.8125C111.531 7.8125 141.146 37.427 141.146 73.9583H136.979C136.979 39.7282 109.23 11.9792 75 11.9792Z" fill="#FF5C00"/>
<circle cx="75" cy="138.021" r="4.16667" fill="#FFAA7A"/>
<rect x="131.771" y="52.0835" width="10.4167" height="43.75" rx="5.20833" fill="#FFAA7A"/>
<rect x="7.8125" y="52.0835" width="10.4167" height="43.75" rx="5.20833" fill="#FFAA7A"/>
</svg>
